<svg width="758" height="979" viewBox="0 0 758 979" fill="none" xmlns="http://www.w3.org/2000/svg">
<path fill-rule="evenodd" clip-rule="evenodd" d="M757.461 0H0.730469V979H757.461V0ZM39.6877 497.638C47.056 497.638 53.0292 491.665 53.0292 484.297C53.0292 476.928 47.056 470.955 39.6877 470.955C32.3194 470.955 26.3462 476.928 26.3462 484.297C26.3462 491.665 32.3194 497.638 39.6877 497.638ZM53.0292 109.934C53.0292 117.302 47.056 123.276 39.6877 123.276C32.3194 123.276 26.3462 117.302 26.3462 109.934C26.3462 102.566 32.3194 96.5925 39.6877 96.5925C47.056 96.5925 53.0292 102.566 53.0292 109.934ZM39.6877 870.4C47.056 870.4 53.0292 864.427 53.0292 857.059C53.0292 849.69 47.056 843.717 39.6877 843.717C32.3194 843.717 26.3462 849.69 26.3462 857.059C26.3462 864.427 32.3194 870.4 39.6877 870.4Z" fill="white"/>
<path fill-rule="evenodd" clip-rule="evenodd" d="M26.613 113.136H0.730469V111.802H26.613V113.136ZM757.461 113.136H52.7624V111.802H757.461V113.136ZM757.461 175.041H0.730469V173.706H757.461V175.041ZM757.461 236.945H0.730469V235.611H757.461V236.945ZM757.461 298.85H0.730469V297.516H757.461V298.85ZM757.461 360.754H0.730469V359.42H757.461V360.754ZM757.461 422.659H0.730469V421.325H757.461V422.659ZM26.613 484.564H0.730469V483.229H26.613V484.564ZM757.461 484.564H53.0292V483.229H757.461V484.564ZM757.461 546.468H0.730469V545.134H757.461V546.468ZM757.461 608.373H0.730469V607.039H757.461V608.373ZM757.461 670.277H0.730469V668.943H757.461V670.277ZM757.461 732.182H0.730469V730.848H757.461V732.182ZM757.461 794.087H0.730469V792.752H757.461V794.087ZM26.613 855.991H0.730469V854.657H26.613V855.991ZM757.461 855.991H52.8958V854.657H757.461V855.991ZM757.461 917.896H0.730469V916.562H757.461V917.896Z" fill="#5EB7FF"/>
<path fill-rule="evenodd" clip-rule="evenodd" d="M112.532 979L112.532 0H113.867L113.867 979H112.532Z" fill="#FF5E5E"/>
</svg>
